<svg xmlns="http://www.w3.org/2000/svg" width="122.963" height="40.226" viewBox="0 0 122.963 40.226"><defs><style>.a{fill:#fff;}</style></defs><g transform="translate(0)"><path d="M122.939,34.782a5.446,5.446,0,0,1-5.444,5.444H5.444A5.446,5.446,0,0,1,0,34.782V5.444A5.431,5.431,0,0,1,5.444,0H117.519a5.446,5.446,0,0,1,5.444,5.444V34.782Z"/><g transform="translate(37.327 7.745)"><g transform="translate(0 8.185)"><path class="a" d="M163.089,68.6,158.4,82.386h2.144l1.39-4.242h4.525l1.437,4.242h2.215L165.4,68.6Zm1.108,2.262c.165.613.33,1.249.542,1.956l1.273,3.653H162.43l1.249-3.676C163.867,72.182,164.032,71.546,164.2,70.862Z" transform="translate(-158.4 -68.364)"/><path class="a" d="M216.626,83.8a3.883,3.883,0,0,0-3.323,1.6l-.094-1.367H211.3V84.2c.047.848.071,1.791.071,3.134V97.963h2.1V93.014a3.625,3.625,0,0,0,2.851,1.225,4.272,4.272,0,0,0,3.158-1.343,5.673,5.673,0,0,0,1.39-4.006,5.583,5.583,0,0,0-1.2-3.653A3.808,3.808,0,0,0,216.626,83.8Zm-.518,1.72c1.862,0,2.686,1.72,2.686,3.441,0,2.192-1.06,3.558-2.781,3.558a2.521,2.521,0,0,1-2.451-1.932,2.765,2.765,0,0,1-.071-.683V88.23a2.257,2.257,0,0,1,.071-.518c0-.047.024-.118.024-.165A2.63,2.63,0,0,1,216.107,85.52Z" transform="translate(-198.834 -79.982)"/><path class="a" d="M262.3,83.8a3.883,3.883,0,0,0-3.323,1.6l-.094-1.367H257V84.2c.047.848.071,1.791.071,3.134V97.963h2.1V93.014a3.625,3.625,0,0,0,2.851,1.225,4.272,4.272,0,0,0,3.158-1.343,5.673,5.673,0,0,0,1.39-4.006,5.583,5.583,0,0,0-1.2-3.653A3.887,3.887,0,0,0,262.3,83.8Zm-.518,1.72c1.862,0,2.686,1.72,2.686,3.441,0,2.192-1.06,3.558-2.781,3.558a2.541,2.541,0,0,1-2.451-1.932,2.766,2.766,0,0,1-.071-.683V88.23a2.258,2.258,0,0,1,.071-.518c0-.047.024-.118.024-.165A2.63,2.63,0,0,1,261.784,85.52Z" transform="translate(-233.765 -79.982)"/><path class="a" d="M320.4,73.68c-1.956-.754-2.569-1.343-2.569-2.451,0-.919.731-1.862,2.38-1.862a4.834,4.834,0,0,1,2.451.613l.189.118.589-1.744-.118-.071a5.968,5.968,0,0,0-3.04-.683c-2.663,0-4.525,1.579-4.525,3.818,0,1.815,1.155,3.087,3.653,3.982,1.767.66,2.427,1.343,2.427,2.5,0,1.32-1.013,2.121-2.663,2.121a5.758,5.758,0,0,1-3.016-.848l-.189-.118-.566,1.791.094.071a7.183,7.183,0,0,0,3.535.9c3.582,0,4.854-2.192,4.854-4.053C323.907,75.848,322.894,74.67,320.4,73.68Z" transform="translate(-278.403 -67.6)"/><path class="a" d="M355.858,74.6l-2.05.636V76.98H352.3v1.673h1.508v5.114a3.842,3.842,0,0,0,.73,2.639,2.659,2.659,0,0,0,2.027.8,4.769,4.769,0,0,0,1.6-.259l.118-.047-.094-1.673L358,85.3a3.47,3.47,0,0,1-.966.118c-.8,0-1.155-.518-1.155-1.72V78.653H358.4V76.98h-2.521V74.6Z" transform="translate(-306.607 -72.95)"/><path class="a" d="M384.049,83.8c-2.922,0-4.949,2.168-4.949,5.3,0,3.016,1.979,5.137,4.807,5.137h.024a4.925,4.925,0,0,0,4.949-5.326,5.306,5.306,0,0,0-1.32-3.7A4.835,4.835,0,0,0,384.049,83.8Zm-.071,1.626c1.885,0,2.734,1.838,2.734,3.535,0,2.1-1.155,3.605-2.781,3.605h-.024c-1.579,0-2.734-1.485-2.734-3.558C381.2,87.241,382.046,85.426,383.978,85.426Z" transform="translate(-327.092 -79.982)"/><path class="a" d="M430.784,83.894l-.118-.024a1.963,1.963,0,0,0-.518-.071,2.974,2.974,0,0,0-2.616,1.673l-.071-1.461H425.6l.024.165c.047.825.071,1.744.071,2.993l-.024,6.81h2.1V88.654c0-.283.024-.566.047-.8a2.312,2.312,0,0,1,2.192-2.1c.212,0,.377.024.566.024l.212.024V83.894Z" transform="translate(-362.634 -79.982)"/><path class="a" d="M452.213,83.7c-2.781,0-4.713,2.215-4.713,5.4a4.671,4.671,0,0,0,4.925,5.043,8.029,8.029,0,0,0,3.3-.636l.118-.047-.4-1.555-.165.071a6.35,6.35,0,0,1-2.616.471,2.92,2.92,0,0,1-3.134-3.016l6.74.024.024-.141a4.162,4.162,0,0,0,.071-.872C456.36,86.245,455.276,83.7,452.213,83.7Zm-.141,1.579a2.007,2.007,0,0,1,1.532.589,2.929,2.929,0,0,1,.707,1.932h-4.76A2.692,2.692,0,0,1,452.072,85.279Z" transform="translate(-379.373 -79.906)"/></g><g transform="translate(0 0)"><path class="a" d="M158.4,28.08a9.2,9.2,0,0,1,1.129-.08,2.581,2.581,0,0,1,1.66.451,1.613,1.613,0,0,1,.584,1.328,1.9,1.9,0,0,1-.584,1.434,2.713,2.713,0,0,1-1.806.531c-.385,0-.69-.013-.969-.04V28.08Zm.544,3.266a3.139,3.139,0,0,0,.531.027c1.129,0,1.739-.571,1.739-1.553,0-.876-.544-1.421-1.66-1.421a3.39,3.39,0,0,0-.624.053v2.895Z" transform="translate(-158.4 -27.841)"/><path class="a" d="M188.807,38.362a1.325,1.325,0,0,1-1.407-1.354,1.366,1.366,0,0,1,1.461-1.407,1.311,1.311,0,0,1,1.407,1.354,1.368,1.368,0,0,1-1.461,1.407Zm.013-.359a.939.939,0,0,0,.89-1.036.9.9,0,1,0-1.779.013.942.942,0,0,0,.89,1.022Z" transform="translate(-183.549 -34.432)"/><path class="a" d="M211.671,36.013l.4,1.341c.08.292.159.571.212.85h.013a8.577,8.577,0,0,1,.266-.836l.478-1.341h.451l.451,1.315c.106.305.2.6.266.863h.013c.053-.266.133-.544.226-.863l.412-1.328h.531l-.943,2.642h-.491l-.451-1.261c-.106-.305-.186-.558-.266-.876h-.013a5.631,5.631,0,0,1-.266.876l-.478,1.248h-.491L211.1,36h.571Z" transform="translate(-204.103 -34.778)"/><path class="a" d="M247.227,36.283a6.006,6.006,0,0,0-.027-.717h.478l.027.425h.013a1.136,1.136,0,0,1,.969-.491,1,1,0,0,1,1.036,1.129v1.58h-.531V36.695c0-.425-.173-.783-.677-.783a.763.763,0,0,0-.717.491.62.62,0,0,0-.04.226v1.593h-.531V36.283Z" transform="translate(-235.409 -34.345)"/><path class="a" d="M272.7,26.8h.531v3.877H272.7Z" transform="translate(-257.523 -26.8)"/><path class="a" d="M283.207,38.362a1.325,1.325,0,0,1-1.407-1.354,1.366,1.366,0,0,1,1.461-1.407,1.311,1.311,0,0,1,1.407,1.354,1.368,1.368,0,0,1-1.461,1.407Zm.013-.359a.939.939,0,0,0,.89-1.036.9.9,0,1,0-1.779.013.942.942,0,0,0,.89,1.022Z" transform="translate(-265.415 -34.432)"/><path class="a" d="M308.91,37.845a4.691,4.691,0,0,0,.04.637h-.478l-.053-.332h-.013a1.119,1.119,0,0,1-.9.4.8.8,0,0,1-.9-.757c0-.637.624-.983,1.766-.983v-.053c0-.212-.066-.611-.664-.611a1.479,1.479,0,0,0-.77.2l-.12-.319a2.09,2.09,0,0,1,.969-.226.973.973,0,0,1,1.115,1.076v.969Zm-.518-.717c-.584-.013-1.248.08-1.248.6a.446.446,0,0,0,.491.465.726.726,0,0,0,.717-.438.668.668,0,0,0,.027-.159v-.465Z" transform="translate(-286.922 -34.605)"/><path class="a" d="M331.548,26.8v3.187a5.233,5.233,0,0,0,.027.677H331.1l-.027-.465h-.013a1.1,1.1,0,0,1-1,.518,1.265,1.265,0,0,1-1.261-1.341,1.321,1.321,0,0,1,1.314-1.421,1.017,1.017,0,0,1,.89.4h.013V26.8Zm-.531,2.31a.584.584,0,0,0-.027-.212.763.763,0,0,0-.77-.544.9.9,0,0,0-.876,1.009.871.871,0,0,0,.863.983.786.786,0,0,0,.783-.571,1.03,1.03,0,0,0,.027-.212Z" transform="translate(-306.175 -26.8)"/><path class="a" d="M365.707,38.362a1.325,1.325,0,0,1-1.407-1.354,1.366,1.366,0,0,1,1.461-1.407,1.311,1.311,0,0,1,1.407,1.354,1.368,1.368,0,0,1-1.461,1.407Zm.013-.359a.939.939,0,0,0,.89-1.036.9.9,0,1,0-1.779.013.934.934,0,0,0,.89,1.022Z" transform="translate(-336.961 -34.432)"/><path class="a" d="M390.727,36.283a6,6,0,0,0-.027-.717h.478l.027.425h.013a1.136,1.136,0,0,1,.969-.491,1,1,0,0,1,1.036,1.129v1.58h-.531V36.695c0-.425-.173-.783-.677-.783a.763.763,0,0,0-.717.491.62.62,0,0,0-.04.226v1.593h-.531Z" transform="translate(-359.856 -34.345)"/><path class="a" d="M424.383,31.3v.637h.77v.372h-.77V33.73c0,.332.106.518.4.518a1.611,1.611,0,0,0,.305-.027l.027.372a1.858,1.858,0,0,1-.478.066.8.8,0,0,1-.571-.2.957.957,0,0,1-.212-.69V32.3H423.4v-.372h.451v-.491Z" transform="translate(-388.214 -30.702)"/><path class="a" d="M441.1,26.8h.531v1.646h.013a.8.8,0,0,1,.385-.332,1.068,1.068,0,0,1,.544-.133A1,1,0,0,1,443.6,29.11v1.567h-.531V29.15c0-.425-.173-.783-.677-.783a.765.765,0,0,0-.717.478.572.572,0,0,0-.04.226v1.593H441.1Z" transform="translate(-403.564 -26.8)"/><path class="a" d="M465.231,36.974a.891.891,0,0,0,1,.916,2.251,2.251,0,0,0,.81-.133l.093.332a2.543,2.543,0,0,1-.983.173,1.3,1.3,0,0,1-1.447-1.328,1.353,1.353,0,0,1,1.381-1.434,1.159,1.159,0,0,1,1.208,1.248,1.078,1.078,0,0,1-.013.226Zm1.554-.345a.715.715,0,0,0-.73-.783.848.848,0,0,0-.823.783Z" transform="translate(-424.03 -34.345)"/></g></g><path class="a" d="M13.57-12.54A3.951,3.951,0,0,1,15.724-16.2a4.707,4.707,0,0,0-3.662-1.939,4.605,4.605,0,0,0-1.465.172q-.474.129-1.292.431a4.162,4.162,0,0,1-1.077.3,4.594,4.594,0,0,1-1.163-.345A6.98,6.98,0,0,0,4.954-18.1a5.156,5.156,0,0,0-2.391.689,4.756,4.756,0,0,0-1.831,1.9A6.536,6.536,0,0,0,0-12.325,11.016,11.016,0,0,0,.6-8.836a14.934,14.934,0,0,0,.991,2.111,10.778,10.778,0,0,0,1.637,2.24A2.823,2.823,0,0,0,5.256-3.451,4.286,4.286,0,0,0,6.634-3.8a5.409,5.409,0,0,1,1.852-.431,5.189,5.189,0,0,1,1.766.388,4.327,4.327,0,0,0,1.551.388q1.379-.043,2.8-1.982A11.2,11.2,0,0,0,16.2-8.577a4.341,4.341,0,0,1-2.326-2.412A3.325,3.325,0,0,1,13.57-12.54Zm-2.455-7.108a4.17,4.17,0,0,0,1.034-3.1h0a3.884,3.884,0,0,0-1.594.474,4.478,4.478,0,0,0-1.335,1.034,3.882,3.882,0,0,0-1.077,3.1,3.529,3.529,0,0,0,2.972-1.465Z" transform="translate(9.975 33.475)"/></g></svg>