<svg xmlns="http://www.w3.org/2000/svg" width="122.963" height="40.218" viewBox="0 0 122.963 40.218"><defs><style>.a{fill:#fff;}</style></defs><g transform="translate(0)"><path d="M122.963,34.785a5.427,5.427,0,0,1-5.433,5.433H5.433A5.427,5.427,0,0,1,0,34.785V5.433A5.427,5.427,0,0,1,5.433,0h112.1a5.427,5.427,0,0,1,5.433,5.433Z"/><g transform="translate(92 15.289)"><path class="a" d="M386.4,85.1a3.48,3.48,0,0,1-1.418-.288,2.575,2.575,0,0,1-1.082-.889h-.1a12.679,12.679,0,0,1,.1,1.322v3.269h-1.2V77.044h.986l.168,1.082h.048a2.833,2.833,0,0,1,1.082-.938A3.322,3.322,0,0,1,386.4,76.9a2.912,2.912,0,0,1,2.428,1.082,5.733,5.733,0,0,1,0,6.058A3.062,3.062,0,0,1,386.4,85.1Zm-.192-7.188a2.087,2.087,0,0,0-1.755.673,3.406,3.406,0,0,0-.553,2.14v.264a4.03,4.03,0,0,0,.553,2.38,2.09,2.09,0,0,0,1.779.721,1.882,1.882,0,0,0,1.611-.841,3.964,3.964,0,0,0,.577-2.284,3.861,3.861,0,0,0-.577-2.284A1.923,1.923,0,0,0,386.21,77.91Z" transform="translate(-382.7 -73.703)"/><path class="a" d="M419.5,74.851h-1.2V63.6h1.2Z" transform="translate(-409.742 -63.6)"/><path class="a" d="M434.757,84.953l-.24-1.13h-.048a3.154,3.154,0,0,1-1.178,1.01,3.72,3.72,0,0,1-1.466.264,2.642,2.642,0,0,1-1.851-.6,2.195,2.195,0,0,1-.673-1.731c0-1.611,1.274-2.428,3.846-2.524l1.346-.048v-.481a1.984,1.984,0,0,0-.409-1.37,1.666,1.666,0,0,0-1.274-.433,5.118,5.118,0,0,0-2.236.6l-.361-.914a5.419,5.419,0,0,1,1.274-.5,5.568,5.568,0,0,1,1.394-.192,3.061,3.061,0,0,1,2.091.625,2.591,2.591,0,0,1,.673,2.019v5.409Zm-2.716-.841a2.445,2.445,0,0,0,1.755-.625,2.266,2.266,0,0,0,.649-1.731v-.721l-1.2.048a4.237,4.237,0,0,0-2.067.457,1.318,1.318,0,0,0-.625,1.226,1.2,1.2,0,0,0,.385.986A1.571,1.571,0,0,0,432.041,84.112Z" transform="translate(-418.098 -73.703)"/><path class="a" d="M458.6,77.5h1.274l1.731,4.519a13.848,13.848,0,0,1,.7,2.236h.048c.072-.24.192-.673.385-1.25.192-.6.865-2.428,1.971-5.481H466l-3.39,8.991a4.524,4.524,0,0,1-1.178,1.9,2.472,2.472,0,0,1-1.659.553,5.523,5.523,0,0,1-1.082-.12v-.962a4.8,4.8,0,0,0,.89.1,1.808,1.808,0,0,0,1.755-1.394l.433-1.13Z" transform="translate(-440.354 -74.158)"/></g><g transform="translate(37.309 14.424)"><path class="a" d="M286.154,78.6a2.7,2.7,0,0,1-.216,4.592,1.176,1.176,0,0,0-.457.817.94.94,0,0,0,.433.721l.6.457a2.929,2.929,0,0,1,1.394,2.332c0,1.563-1.514,3.125-4.351,3.125-2.4,0-3.558-1.154-3.558-2.38a2.355,2.355,0,0,1,1.274-2.019,7.24,7.24,0,0,1,3.173-.769,1.659,1.659,0,0,1-.5-1.13,1.293,1.293,0,0,1,.168-.649,4.075,4.075,0,0,1-.529.024,2.6,2.6,0,0,1-2.741-2.6,2.9,2.9,0,0,1,1.058-2.212A4.546,4.546,0,0,1,284.856,78h3.414l-1.058.6Zm-1.178,7.356a1.944,1.944,0,0,0-.385-.024,6.249,6.249,0,0,0-1.731.264,1.847,1.847,0,0,0-1.418,1.707c0,1.178,1.154,2.019,2.909,2.019,1.587,0,2.428-.769,2.428-1.779C286.779,87.3,286.25,86.847,284.976,85.957Zm.481-3.149a1.651,1.651,0,0,0,.409-1.2c0-1.2-.721-3.053-2.091-3.053a1.521,1.521,0,0,0-1.154.553,1.848,1.848,0,0,0-.361,1.226c0,1.106.649,2.957,2.067,2.957A1.682,1.682,0,0,0,285.457,82.808Z" transform="translate(-249.999 -73.673)"/><path class="a" d="M249.439,85.009a3.905,3.905,0,0,1-4.039-3.894,4.1,4.1,0,0,1,4.279-4.015,3.857,3.857,0,0,1,3.943,3.894A4.011,4.011,0,0,1,249.439,85.009Zm2.067-1.346a2.933,2.933,0,0,0,.5-1.827c0-1.466-.7-4.231-2.741-4.231a2.372,2.372,0,0,0-1.49.553,2.487,2.487,0,0,0-.769,2.019c0,1.635.817,4.327,2.813,4.327A2.04,2.04,0,0,0,251.506,83.663Z" transform="translate(-223.716 -72.989)"/><path class="a" d="M212.139,85.009a3.905,3.905,0,0,1-4.039-3.894,4.1,4.1,0,0,1,4.279-4.015,3.857,3.857,0,0,1,3.942,3.894A4.011,4.011,0,0,1,212.139,85.009Zm2.067-1.346a2.933,2.933,0,0,0,.5-1.827c0-1.466-.7-4.231-2.741-4.231a2.372,2.372,0,0,0-1.49.553,2.487,2.487,0,0,0-.769,2.019c0,1.635.817,4.327,2.813,4.327A2.04,2.04,0,0,0,214.206,83.663Z" transform="translate(-195.383 -72.989)"/><path class="a" d="M166.667,72.895l-2.38.553a18.309,18.309,0,0,1-2.741.288c-4.592,0-6.346-3.366-6.346-6.01,0-3.221,2.476-6.226,6.707-6.226a9.735,9.735,0,0,1,2.548.361,6.745,6.745,0,0,1,2.188,1.034l-1.37,1.322-.577.144.409-.673a4.739,4.739,0,0,0-3.558-1.563,4.6,4.6,0,0,0-4.616,4.9,5.871,5.871,0,0,0,5.89,6.058,5.164,5.164,0,0,0,2.115-.409V69.986l-2.5.144,1.322-.721h3.534l-.433.409a.364.364,0,0,0-.168.264c-.024.144-.024.625-.024.793Z" transform="translate(-155.2 -61.139)"/><path class="a" d="M316.334,71.275c-.553-.048-.673-.144-.673-.793v-9.5c.072-.577.24-.673.745-.986H314.05l-1.25.6h1.274V70.866c0,.337-.072.385-.457.889h2.933l.625-.361C316.887,71.347,316.622,71.323,316.334,71.275Z" transform="translate(-274.914 -60)"/><path class="a" d="M336.534,84.356a6.088,6.088,0,0,1-.553.288,3.991,3.991,0,0,1-1.611.313,3.418,3.418,0,0,1-2.188-.649,4.231,4.231,0,0,1-1.683-3.486A3.762,3.762,0,0,1,334.274,77a3.246,3.246,0,0,1,1.707.457,2.8,2.8,0,0,1,1.154,1.635l-3.87,1.587-1.274.1c.409,2.091,1.827,3.317,3.414,3.317a4.25,4.25,0,0,0,2.019-.577ZM335,79.428c.313-.12.481-.216.481-.457a1.648,1.648,0,0,0-1.635-1.418,2.019,2.019,0,0,0-1.9,2.284c0,.288.024.577.048.865Z" transform="translate(-288.359 -72.913)"/><g transform="translate(49.281 4.111)"><path class="a" d="M360.7,77.22V78.3h-.144V77.22H360.2V77.1h.841v.12Z" transform="translate(-360.2 -77.1)"/><path class="a" d="M365.589,78.3V77.2h0l-.337,1.106h-.1L364.82,77.2h0V78.3h-.12V77.1h.216l.313.962h0l.313-.962h.216v1.2Z" transform="translate(-363.618 -77.1)"/></g></g><g transform="translate(37.358 8.101)"><path class="a" d="M158.669,37.366h-.817a4.562,4.562,0,0,0-.24-.962h-1.2a4.562,4.562,0,0,0-.24.962H155.4a14.72,14.72,0,0,1,.6-1.659A12.119,12.119,0,0,0,156.6,34h.986a17.183,17.183,0,0,0,.553,1.683C158.477,36.716,158.669,37.269,158.669,37.366Zm-1.2-1.466a14.855,14.855,0,0,1-.433-1.442h-.048a12.127,12.127,0,0,1-.457,1.442Z" transform="translate(-155.4 -33.928)"/><path class="a" d="M174.065,37.29h-.649a7.023,7.023,0,0,0-.721-1.13,6,6,0,0,1-.841-1.466H171.8a8.321,8.321,0,0,1,.072,1.034c0,.433,0,.938.048,1.563H171.3c.024-.529.048-1.13.048-1.755s-.024-1.154-.048-1.611h.769a4.521,4.521,0,0,0,.649,1.082,5.294,5.294,0,0,1,.769,1.37h.048a8.321,8.321,0,0,1-.072-1.034c0-.457-.024-.938-.048-1.442h.649c-.024.433-.048.962-.048,1.611C174.041,36.184,174.041,36.761,174.065,37.29Z" transform="translate(-167.478 -33.852)"/><path class="a" d="M189.361,35.563a1.909,1.909,0,0,1-.481,1.274,1.652,1.652,0,0,1-1.322.553c-.264,0-.6,0-1.058-.024.024-.529.024-1.106.024-1.755,0-.625,0-1.154-.024-1.611h1.082a1.689,1.689,0,0,1,1.346.457A1.563,1.563,0,0,1,189.361,35.563Zm-.721.12a1.277,1.277,0,0,0-.288-.841,1.123,1.123,0,0,0-.889-.337,1.724,1.724,0,0,0-.312.024c.024.337.024.7.024,1.082,0,.409,0,.817.024,1.226a1.587,1.587,0,0,0,.337.024,1,1,0,0,0,.817-.337A1.162,1.162,0,0,0,188.64,35.683Z" transform="translate(-179.024 -33.928)"/><path class="a" d="M204.116,37.366h-.769a5.572,5.572,0,0,0-.457-1.13.59.59,0,0,0-.5-.216H202.1c0,.433,0,.889.024,1.346H201.4c.024-.529.024-1.106.024-1.755,0-.625,0-1.154-.024-1.611h1.226c.793,0,1.178.264,1.178.817a.889.889,0,0,1-.673.889v.048a.818.818,0,0,1,.457.409A5.542,5.542,0,0,1,204.116,37.366Zm-.962-2.38c0-.337-.216-.5-.673-.5a1.194,1.194,0,0,0-.433.048c.024.264.024.625.024,1.034h.24C202.89,35.563,203.155,35.37,203.155,34.986Z" transform="translate(-190.342 -33.928)"/><path class="a" d="M217.769,35.407a1.943,1.943,0,0,1-.481,1.322,1.6,1.6,0,0,1-1.2.529,1.488,1.488,0,0,1-1.13-.481,1.65,1.65,0,0,1-.457-1.226,1.943,1.943,0,0,1,.481-1.322,1.6,1.6,0,0,1,1.2-.529,1.488,1.488,0,0,1,1.13.481A1.65,1.65,0,0,1,217.769,35.407Zm-.7.072a1.375,1.375,0,0,0-.264-.865.817.817,0,0,0-1.322,0,1.375,1.375,0,0,0-.264.865,1.255,1.255,0,0,0,.288.865.817.817,0,0,0,1.322,0A1.66,1.66,0,0,0,217.072,35.479Z" transform="translate(-200.293 -33.7)"/><path class="a" d="M231.921,37.366H231.2c.024-.529.024-1.13.024-1.755s0-1.154-.024-1.611h.721c-.024.433-.024.962-.024,1.611S231.9,36.837,231.921,37.366Z" transform="translate(-212.978 -33.928)"/><path class="a" d="M240.761,35.563a1.909,1.909,0,0,1-.481,1.274,1.652,1.652,0,0,1-1.322.553c-.264,0-.6,0-1.058-.024.024-.529.024-1.106.024-1.755,0-.625,0-1.154-.024-1.611h1.082a1.689,1.689,0,0,1,1.346.457A1.563,1.563,0,0,1,240.761,35.563Zm-.721.12a1.277,1.277,0,0,0-.288-.841,1.124,1.124,0,0,0-.889-.337,1.724,1.724,0,0,0-.313.024c.024.337.024.7.024,1.082,0,.409,0,.817.024,1.226a1.587,1.587,0,0,0,.337.024,1,1,0,0,0,.817-.337A1.162,1.162,0,0,0,240.04,35.683Z" transform="translate(-218.067 -33.928)"/><path class="a" d="M260.069,37.366h-.817a4.562,4.562,0,0,0-.24-.962h-1.2a4.562,4.562,0,0,0-.24.962H256.8a14.725,14.725,0,0,1,.6-1.659A12.119,12.119,0,0,0,258,34h.986a17.188,17.188,0,0,0,.553,1.683A13.508,13.508,0,0,1,260.069,37.366ZM258.891,35.9a14.855,14.855,0,0,1-.433-1.442h-.048a12.124,12.124,0,0,1-.457,1.442Z" transform="translate(-232.424 -33.928)"/><path class="a" d="M275.252,34.889a.993.993,0,0,1-.457.914,2.076,2.076,0,0,1-1.13.288H273.5c0,.313,0,.745.024,1.274H272.8c.024-.5.024-1.082.024-1.755,0-.625,0-1.154-.024-1.611h1.3a1.425,1.425,0,0,1,.817.216A.751.751,0,0,1,275.252,34.889Zm-.673.144c0-.361-.24-.553-.745-.553a2.4,2.4,0,0,0-.385.048c.024.337.024.7.024,1.106h.144C274.266,35.635,274.579,35.418,274.579,35.034Z" transform="translate(-244.577 -33.928)"/><path class="a" d="M288.052,34.889a.993.993,0,0,1-.457.914,2.076,2.076,0,0,1-1.13.288H286.3c0,.313,0,.745.024,1.274H285.6c.024-.5.024-1.082.024-1.755,0-.625,0-1.154-.024-1.611h1.3a1.425,1.425,0,0,1,.817.216A.7.7,0,0,1,288.052,34.889Zm-.649.144c0-.361-.24-.553-.745-.553a2.4,2.4,0,0,0-.385.048c.024.337.024.7.024,1.106h.144C287.09,35.635,287.4,35.418,287.4,35.034Z" transform="translate(-254.3 -33.928)"/><path class="a" d="M306.569,35.407a1.943,1.943,0,0,1-.481,1.322,1.519,1.519,0,0,1-1.2.529,1.488,1.488,0,0,1-1.13-.481,1.65,1.65,0,0,1-.457-1.226,1.943,1.943,0,0,1,.481-1.322,1.6,1.6,0,0,1,1.2-.529,1.488,1.488,0,0,1,1.13.481A1.65,1.65,0,0,1,306.569,35.407Zm-.721.072a1.375,1.375,0,0,0-.264-.865.817.817,0,0,0-1.322,0,1.375,1.375,0,0,0-.264.865,1.255,1.255,0,0,0,.288.865.817.817,0,0,0,1.322,0A1.464,1.464,0,0,0,305.848,35.479Z" transform="translate(-267.745 -33.7)"/><path class="a" d="M322.765,37.29h-.649a7.023,7.023,0,0,0-.721-1.13,6,6,0,0,1-.841-1.466H320.5a8.315,8.315,0,0,1,.072,1.034c0,.433,0,.938.048,1.563H320c.024-.529.048-1.13.048-1.755s-.024-1.154-.048-1.611h.769a4.521,4.521,0,0,0,.649,1.082,5.3,5.3,0,0,1,.769,1.37h.048a8.321,8.321,0,0,1-.072-1.034c0-.457,0-.938-.048-1.442h.649c-.024.433-.048.962-.048,1.611C322.716,36.184,322.74,36.761,322.765,37.29Z" transform="translate(-280.431 -33.852)"/></g><path class="a" d="M12.171-16.073,4.248-24.032l10.083,5.8ZM2.159-24.5a1.32,1.32,0,0,0-.792,1.26V-7.322a1.32,1.32,0,0,0,.792,1.26l9.255-9.219Zm15.305,8.139-2.125-1.26L13-15.281l2.341,2.3L17.5-14.2a1.2,1.2,0,0,0,.486-1.08A1.283,1.283,0,0,0,17.465-16.361ZM4.248-6.53l10.083-5.8-2.161-2.161Z" transform="translate(10.14 36.159)"/></g></svg>