<svg xmlns="http://www.w3.org/2000/svg" width="104.165" height="53.07" viewBox="0 0 104.165 53.07"><defs><style>.a{font-size:12px;font-family:Poppins-SemiBold, Poppins;font-weight:600;letter-spacing:0.17em;}.b{fill:#eb0f0f;}</style></defs><g transform="translate(-591 -198.853)"><path d="M.72-39.149V-43.11H8.342v21.186H3.9V-39.149Zm22.177,1.8q-.48-3.121-3.181-3.121a3.216,3.216,0,0,0-3.061,1.846,12.291,12.291,0,0,0-.84,5.777,4.205,4.205,0,0,1,1.876-2.3A6.105,6.105,0,0,1,20.946-36a6.33,6.33,0,0,1,4.816,1.846,7.3,7.3,0,0,1,1.756,5.237,7.968,7.968,0,0,1-.84,3.721,6.094,6.094,0,0,1-2.506,2.551,8.163,8.163,0,0,1-4.036.93q-4.621,0-6.362-2.866a15.223,15.223,0,0,1-1.741-7.907q0-5.792,1.876-8.583t6.077-2.791a6.408,6.408,0,0,1,4.921,1.831,7.559,7.559,0,0,1,1.951,4.681Zm-6.722,8.132a4.019,4.019,0,0,0,.975,2.776,3.637,3.637,0,0,0,2.866,1.1A3.487,3.487,0,0,0,22.6-26.3a3.61,3.61,0,0,0,.96-2.671,3.7,3.7,0,0,0-.975-2.761,3.58,3.58,0,0,0-2.626-.96,4.107,4.107,0,0,0-2.671.9A3.131,3.131,0,0,0,16.175-29.216Zm25.478-8.132q-.48-3.121-3.181-3.121a3.216,3.216,0,0,0-3.061,1.846,12.291,12.291,0,0,0-.84,5.777,4.205,4.205,0,0,1,1.876-2.3A6.105,6.105,0,0,1,39.7-36a6.33,6.33,0,0,1,4.816,1.846,7.3,7.3,0,0,1,1.756,5.237,7.968,7.968,0,0,1-.84,3.721,6.094,6.094,0,0,1-2.506,2.551,8.163,8.163,0,0,1-4.036.93q-4.621,0-6.362-2.866a15.223,15.223,0,0,1-1.741-7.907q0-5.792,1.876-8.583t6.077-2.791a6.408,6.408,0,0,1,4.921,1.831,7.559,7.559,0,0,1,1.951,4.681ZM34.93-29.216a4.019,4.019,0,0,0,.975,2.776,3.637,3.637,0,0,0,2.866,1.1,3.487,3.487,0,0,0,2.581-.96,3.61,3.61,0,0,0,.96-2.671,3.7,3.7,0,0,0-.975-2.761,3.58,3.58,0,0,0-2.626-.96,4.107,4.107,0,0,0-2.671.9A3.131,3.131,0,0,0,34.93-29.216ZM49.185-32.7q0,10.773,8.1,10.773,4.291,0,6.182-2.881A14.26,14.26,0,0,0,65.36-32.7a14.2,14.2,0,0,0-1.891-7.862q-1.891-2.881-6.182-2.881Q49.185-43.44,49.185-32.7Zm12,0a12.569,12.569,0,0,1-.8,5.027,3.074,3.074,0,0,1-3.106,1.756,3.1,3.1,0,0,1-3.136-1.756,12.569,12.569,0,0,1-.8-5.027,12.473,12.473,0,0,1,.8-5,3.1,3.1,0,0,1,3.136-1.756,3.074,3.074,0,0,1,3.106,1.756A12.473,12.473,0,0,1,61.188-32.7Zm11.433,4.471Q73.1-25.1,75.863-25.1a3.155,3.155,0,0,0,3.031-1.846,12.623,12.623,0,0,0,.81-5.777,4.205,4.205,0,0,1-1.876,2.3,6.105,6.105,0,0,1-3.256.855,6.33,6.33,0,0,1-4.816-1.846A7.3,7.3,0,0,1,68-36.658a7.993,7.993,0,0,1,.84-3.706,6.072,6.072,0,0,1,2.506-2.566,8.163,8.163,0,0,1,4.036-.93q4.621,0,6.362,2.806a14.753,14.753,0,0,1,1.741,7.787q0,5.672-1.756,8.613t-5.867,2.941a7.677,7.677,0,0,1-3.766-.87,6.192,6.192,0,0,1-2.431-2.356,7.8,7.8,0,0,1-1.005-3.286Zm6.722-8.132a4.019,4.019,0,0,0-.975-2.776,3.637,3.637,0,0,0-2.866-1.1,3.488,3.488,0,0,0-2.581.96,3.61,3.61,0,0,0-.96,2.671,3.755,3.755,0,0,0,.975,2.776,3.548,3.548,0,0,0,2.626.975,4.08,4.08,0,0,0,2.656-.915A3.155,3.155,0,0,0,79.344-36.358Z" transform="translate(611.68 255.994)"/><text class="a" transform="translate(628.503 247.923)"><tspan x="0" y="0">Hot Line</tspan></text><g transform="translate(591 198.853)"><g transform="translate(0 0)"><path class="b" d="M2.546,0H9.287a2.546,2.546,0,0,1,2.546,2.546h0A2.546,2.546,0,0,1,9.286,5.091H2.546A2.546,2.546,0,0,1,0,2.546H0A2.546,2.546,0,0,1,2.546,0Z" transform="translate(19.273 43.704)"/><path class="b" d="M294,446.584a2.24,2.24,0,0,1,.175-.869c-4.6-.081-11.8-5.039-12.966-11.454a4.667,4.667,0,0,1-.583.038H279.4c1.012,7.462,9.39,13.3,14.665,13.355a2.239,2.239,0,0,1-.057-.5Z" transform="translate(-274.729 -400.621)"/><path class="b" d="M5.3,0h0a5.3,5.3,0,0,1,5.3,5.3V16.016a5.3,5.3,0,0,1-5.3,5.3h0a5.3,5.3,0,0,1-5.3-5.3V5.3A5.3,5.3,0,0,1,5.3,0Z" transform="translate(0 12.359)"/><path class="b" d="M280.028,113.405a4.665,4.665,0,0,1,1.428.224c2.134-4.651,8.264-9.171,16.682-9.171,7.654,0,14,2.822,16.312,6.753h2.839c-1.215-2.755-7.4-10.165-19.135-10.165-10.676,0-18.08,8.273-19.426,12.363h.105Z" transform="translate(-274.129 -101.046)"/></g></g></g></svg>