<svg xmlns="http://www.w3.org/2000/svg" xmlns:xlink="http://www.w3.org/1999/xlink" width="66.182" height="36.056" viewBox="0 0 66.182 36.056"><defs><style>.a{fill:url(#a);}</style><linearGradient id="a" x1="0.5" x2="1.575" y2="1.666" gradientUnits="objectBoundingBox"><stop offset="0" stop-color="#1221c2"/><stop offset="1" stop-color="#0312ab"/></linearGradient></defs><g transform="translate(-36.027 -4.535)"><path class="a" d="M51.422,57.172,47.506,44.017,43.451,57.172ZM54.9,68.013l-2.289-6.9H42.257l-2.291,6.9H36.027L45.65,37.107h3.57l9.624,30.906Z" transform="translate(0 -27.422)"/><path class="a" d="M180.351,37.108h3.937V50.993l9.76-13.885h4.9l-9.8,13.812,12,17.094H196.34L186.776,54.34l-2.488,3.489V68.014h-3.937Z" transform="translate(-121.506 -27.423)"/><path class="a" d="M315.295,57.276h3.94l-3.323,27.717h-3.969Z" transform="translate(-232.294 -44.402)"/><path class="a" d="M359.1,4.535l-1.029,8.338h4.147l1.034-8.338Z" transform="translate(-271.125)"/><path class="a" d="M358.361,62.986a3.984,3.984,0,0,0,1.2-3.132V37.128h3.9V59.854a7.675,7.675,0,0,1-2.428,5.8,9.475,9.475,0,0,1-6.654,2.372,10.624,10.624,0,0,1-4.9-1.3,8,8,0,0,1-3.134-2.95l3.424-1.8C352.2,65.156,356.835,64.206,358.361,62.986Z" transform="translate(-261.259 -27.44)"/></g></svg>